<svg xmlns="http://www.w3.org/2000/svg" width="162" height="52" fill="none"><path fill="url(#a)" d="M32.156.665c-1.328 0-2.532.179-3.594.542V6.8c.267-.327.572-.624.921-.883q1.07-.793 2.673-.794c1.07 0 1.983.266 2.695.794.432.32.795.69 1.092 1.122V1.273q-1.659-.61-3.787-.608"/><path fill="#fff" d="M42.24 10.595c0 1.24-.209 2.458-.632 3.646a9.5 9.5 0 0 1-1.895 3.209c-.847.951-1.9 1.708-3.162 2.28q-1.879.845-4.397.846-2.521 0-4.403-.846c-1.254-.572-2.31-1.329-3.14-2.28a9.8 9.8 0 0 1-1.9-3.209 10.6 10.6 0 0 1-.646-3.646q-.001-1.861.646-3.624a9.7 9.7 0 0 1 1.9-3.185c.83-.943 1.886-1.7 3.14-2.266.262-.118.528-.222.809-.31v5.593q-.413.525-.69 1.174a6.64 6.64 0 0 0 0 5.258 4.9 4.9 0 0 0 1.611 2.07q1.068.794 2.673.795c1.07 0 1.982-.267 2.695-.795a4.9 4.9 0 0 0 1.611-2.07 6.7 6.7 0 0 0 .533-2.637c0-.916-.178-1.782-.533-2.621a4.7 4.7 0 0 0-.52-.935v-5.77c.21.075.416.158.608.246 1.262.563 2.318 1.322 3.162 2.266a9.4 9.4 0 0 1 1.895 3.184q.633 1.763.632 3.624z"/><path fill="url(#b)" d="M49.628 20.315v-7.314H44.6v7.314z"/><path fill="#fff" d="M49.628.926H44.6v12.075h5.027z"/><path fill="url(#c)" d="M64.658.926v10.768l-.013-.022v8.206l.305.437h4.685V.926h-4.977"/><path fill="#fff" d="M64.642 11.67v8.205l-6.792-9.778v10.218h-4.983V.926h4.64z"/><path fill="url(#d)" d="M72.685.926V9.46h5.026v-4.18h9.014V.926H72.682z"/><path fill="#fff" d="M85.546 9.464v4.166H77.71v6.685h-5.026V9.456h5.026v.008z"/><path fill="url(#e)" d="M89.743.927v19.389h5.027V.927z"/><path fill="#fff" d="M103.918 15.963h-9.15v4.35h9.15zM102.603 8.417h-7.834v4.144h7.834zM103.783.927h-9.014v4.35h9.014z"/><path fill="url(#f)" d="M121.703 5.136c-.17-.467-.437-.951-.786-1.455a6.8 6.8 0 0 0-1.389-1.454c-.572-.46-1.3-.839-2.169-1.128-.877-.288-1.931-.431-3.171-.431-1.589 0-2.964.26-4.113.786-1.158.52-2.044 1.248-2.659 2.175-.594.883-.908 1.908-.93 3.066h4.93q-.01-.065-.008-.135c0-.283.083-.558.245-.838.162-.284.445-.512.839-.707q.59-.288 1.581-.289c.706 0 1.254.097 1.672.297.409.201.72.432.929.682.209.253.371.58.498.98h4.952a8.5 8.5 0 0 0-.423-1.552z"/><path fill="#fff" d="M122.677 14.343c0 1.204-.319 2.28-.943 3.222-.63.944-1.537 1.678-2.725 2.214-1.188.533-2.637.795-4.351.795q-2.017 0-3.445-.468-1.428-.465-2.354-1.204a6.8 6.8 0 0 1-1.485-1.576c-.363-.558-.638-1.083-.808-1.576-.179-.489-.311-1.047-.424-1.677h5.087q.21.736.564 1.226c.237.32.594.603 1.084.847.489.245 1.152.372 1.99.372 1.032 0 1.752-.201 2.162-.594.415-.394.616-.817.616-1.27 0-.416-.149-.757-.454-1.01-.311-.253-.839-.437-1.589-.564l-2.593-.415a14.2 14.2 0 0 1-3.171-.921q-1.494-.624-2.42-1.804c-.624-.786-.935-1.82-.935-3.088 0-.052 0-.104.009-.157h4.93q.055.657.712.98c.476.239 1.07.414 1.768.533l2.725.445c1.084.179 2.079.484 3 .93.913.445 1.656 1.061 2.214 1.834q.838 1.166.839 2.925z"/><path fill="url(#g)" d="M129.603.927v4.35h.014v15.039h5.026V.927H129.6z"/><path fill="#fff" d="M140.52.927h-5.874v4.35h5.874zM129.607.927h-5.86v4.35h5.86z"/><path fill="url(#h)" d="M14.519 13.155q-.27.869-.682 1.45c-.267.379-.69.711-1.249 1.003-.563.297-1.306.437-2.235.437q-1.638 0-2.74-.847a5.16 5.16 0 0 1-1.649-2.145 4 4 0 0 1-.135-.357H.253q.155.716.401 1.419a10.3 10.3 0 0 0 1.93 3.335c.856.988 1.923 1.782 3.215 2.368 1.292.594 2.791.883 4.493.883 1.455 0 2.703-.18 3.734-.542 1.04-.363 1.9-.83 2.593-1.403q1.035-.858 1.648-1.825c.41-.638.712-1.249.92-1.82.193-.529.358-1.128.476-1.8.009-.051.023-.104.03-.156z"/><path fill="#fff" d="M19.694 7.543H14.52c-.179-.58-.407-1.062-.682-1.455-.267-.385-.69-.729-1.248-1.017-.564-.297-1.307-.438-2.236-.438q-1.638-.001-2.739.83a5.04 5.04 0 0 0-1.65 2.14 7 7 0 0 0-.541 2.725c0 .817.134 1.603.407 2.368H.253C.083 11.915 0 11.12 0 10.328c0-1.292.214-2.546.654-3.772a10.1 10.1 0 0 1 1.93-3.311C3.44 2.263 4.508 1.477 5.8.883 7.092.297 8.59 0 10.293 0c1.454 0 2.703.187 3.734.55 1.04.363 1.9.825 2.593 1.402q1.036.859 1.647 1.82c.41.647.712 1.255.921 1.827s.38 1.226.506 1.946z"/><path fill="url(#i)" d="M49.551 50.66v-7.695h-5.288v7.694z"/><path fill="#fff" d="M49.551 30.267h-5.288v12.698h5.288z"/><path fill="url(#j)" d="M38.817 34.96c-.17-.47-.44-.953-.79-1.46a6.8 6.8 0 0 0-1.394-1.46c-.574-.462-1.303-.841-2.175-1.133-.88-.291-1.936-.431-3.181-.431-1.595 0-2.973.26-4.128.789-1.163.522-2.048 1.251-2.667 2.183q-.897 1.33-.932 3.077h4.947c-.009-.044-.009-.09-.009-.134 0-.284.083-.559.245-.842.165-.283.448-.514.842-.707q.593-.29 1.586-.291c.707 0 1.26.096 1.675.297.41.2.723.432.932.685s.371.58.5.984h4.97a8.6 8.6 0 0 0-.424-1.556z"/><path fill="#fff" d="M39.793 44.198c0 1.207-.32 2.287-.946 3.233-.633.946-1.543 1.683-2.733 2.22-1.191.536-2.646.797-4.364.797q-2.024 0-3.457-.47t-2.362-1.208a6.9 6.9 0 0 1-1.49-1.578c-.366-.558-.641-1.086-.811-1.578a10 10 0 0 1-.424-1.683h5.104q.209.738.566 1.229c.24.322.597.602 1.086.85q.736.368 1.997.37 1.553-.001 2.167-.596c.418-.396.618-.82.618-1.273 0-.418-.148-.759-.453-1.012-.314-.253-.842-.44-1.595-.566l-2.599-.418a14.3 14.3 0 0 1-3.181-.924q-1.5-.626-2.428-1.81c-.628-.789-.938-1.825-.938-3.099q-.002-.078.008-.156h4.947q.055.66.715.984c.476.24 1.072.418 1.774.536l2.733.449c1.086.178 2.084.483 3.008.932.916.445 1.66 1.064 2.22 1.84.557.78.84 1.756.84 2.933zM13.917 30.267h-1.964l-1.575 4.986 2.326 7.47H8.016l-1.43 4.522h7.523l1.075 3.418h5.511L13.917 30.27z"/><path fill="url(#k)" d="m7.99 42.721 2.371-7.523.017.052 1.575-4.985H6.778L0 50.66h5.51l1.076-3.418 1.43-4.52z"/><path fill="#fff" d="M67.186 30.267h-1.964l-1.575 4.986 2.326 7.47h-4.688l-1.43 4.522h7.523l1.076 3.418h5.51L67.186 30.27z"/><path fill="url(#l)" d="m61.26 42.721 2.37-7.523.017.052 1.575-4.985h-5.175L53.27 50.657h5.51l1.076-3.418 1.43-4.52h-.025z"/><path fill="#fff" d="M93.939 46.207q2.34-1.606 4.01-3.033t2.581-2.948q.276-.46.468-.949h-5.494q-.058.08-.124.16c-.561.687-1.391 1.46-2.489 2.31q-1.645 1.277-4.036 3.154L86 47.13v3.56h15.633v-4.484z"/><path fill="#fff" d="M95.504 39.278q.718-.965.718-2.043 0-1.223-.828-1.835-.83-.612-1.782-.613-1.031.001-1.862.707-.829.71-.83 2.203h-5.002q.002-1.877.654-3.276.652-1.401 1.766-2.31a7.6 7.6 0 0 1 2.53-1.36q1.412-.45 2.934-.449 2.15 0 3.874.817 1.728.813 2.747 2.282t1.018 3.454q-.001 1.292-.443 2.423M127.049 50.692v-3.567l2.86-2.233a1137 1137 0 0 1 4.045-3.159q1.646-1.279 2.492-2.315.844-1.035.844-2.206c0-.78-.278-1.43-.831-1.837q-.83-.614-1.784-.613-1.036.001-1.865.707-.829.709-.83 2.205h-5.01q0-1.88.654-3.28a6.5 6.5 0 0 1 1.771-2.316 7.6 7.6 0 0 1 2.533-1.36 9.7 9.7 0 0 1 2.939-.449q2.15 0 3.88.817 1.73.816 2.75 2.288 1.022 1.469 1.02 3.459 0 1.852-.913 3.377t-2.587 2.953q-1.675 1.431-4.018 3.036h7.705v4.493h-15.657zM153.555 50.709q-2.248 0-4.02-.798-1.774-.799-2.802-2.274t-1.084-3.506h4.818q.19.731.487 1.218.297.488.88.853.58.365 1.584.365 1.513 0 2.26-.893.744-.894.745-1.977c0-.724-.245-1.38-.731-1.978q-.73-.894-2.219-.893-.975-.001-1.529.365-.557.367-.987 1.125h-5.143l1.895-11.912h12.479v4.493h-9.069l-.622 3.79h.135q.405-.488.88-.825.474-.34 1.273-.584.796-.244 1.964-.244 2.165-.001 3.681.935 1.516.933 2.302 2.422a6.75 6.75 0 0 1 .784 3.196q0 1.3-.487 2.57a6.7 6.7 0 0 1-1.488 2.302q-1.002 1.028-2.491 1.64-1.489.608-3.492.607z"/><path fill="url(#m)" d="M114.472 51.61c6.051 0 10.956-4.904 10.956-10.954S120.523 29.7 114.472 29.7s-10.955 4.904-10.955 10.955c0 6.05 4.905 10.955 10.955 10.955"/><defs><linearGradient id="a" x1="32.252" x2="32.252" y1="7.036" y2=".665" gradientUnits="userSpaceOnUse"><stop stop-color="#fff"/><stop offset=".08" stop-color="#fff" stop-opacity=".922"/><stop offset=".2" stop-color="#fff" stop-opacity=".723"/><stop offset=".35" stop-color="#fff" stop-opacity=".462"/><stop offset=".54" stop-color="#fff" stop-opacity=".194"/><stop offset=".75" stop-color="#fff" stop-opacity=".02"/><stop offset=".84" stop-color="#fff" stop-opacity="0"/></linearGradient><linearGradient id="b" x1="49.628" x2="44.598" y1="16.655" y2="16.655" gradientUnits="userSpaceOnUse"><stop stop-color="#fff"/><stop offset=".08" stop-color="#fff" stop-opacity=".922"/><stop offset=".2" stop-color="#fff" stop-opacity=".723"/><stop offset=".35" stop-color="#fff" stop-opacity=".462"/><stop offset=".54" stop-color="#fff" stop-opacity=".194"/><stop offset=".75" stop-color="#fff" stop-opacity=".02"/><stop offset=".84" stop-color="#fff" stop-opacity="0"/></linearGradient><linearGradient id="c" x1="67.139" x2="67.139" y1=".926" y2="20.315" gradientUnits="userSpaceOnUse"><stop stop-color="#fff"/><stop offset=".08" stop-color="#fff" stop-opacity=".922"/><stop offset=".2" stop-color="#fff" stop-opacity=".723"/><stop offset=".35" stop-color="#fff" stop-opacity=".462"/><stop offset=".54" stop-color="#fff" stop-opacity=".194"/><stop offset=".75" stop-color="#fff" stop-opacity=".02"/><stop offset=".84" stop-color="#fff" stop-opacity="0"/></linearGradient><linearGradient id="d" x1="72.685" x2="86.728" y1="5.191" y2="5.191" gradientUnits="userSpaceOnUse"><stop stop-color="#fff" stop-opacity="0"/><stop offset=".3" stop-color="#fff" stop-opacity=".13"/><stop offset=".59" stop-color="#fff" stop-opacity=".462"/><stop offset=".8" stop-color="#fff" stop-opacity=".792"/><stop offset=".9" stop-color="#fff" stop-opacity=".97"/><stop offset="1" stop-color="#fff"/></linearGradient><linearGradient id="e" x1="92.256" x2="92.256" y1=".927" y2="20.316" gradientUnits="userSpaceOnUse"><stop stop-color="#fff" stop-opacity="0"/><stop offset=".3" stop-color="#fff" stop-opacity=".13"/><stop offset=".59" stop-color="#fff" stop-opacity=".462"/><stop offset=".8" stop-color="#fff" stop-opacity=".792"/><stop offset=".9" stop-color="#fff" stop-opacity=".97"/><stop offset="1" stop-color="#fff"/></linearGradient><linearGradient id="f" x1="106.489" x2="122.127" y1="3.679" y2="3.679" gradientUnits="userSpaceOnUse"><stop stop-color="#fff" stop-opacity="0"/><stop offset=".3" stop-color="#fff" stop-opacity=".13"/><stop offset=".59" stop-color="#fff" stop-opacity=".462"/><stop offset=".8" stop-color="#fff" stop-opacity=".792"/><stop offset=".9" stop-color="#fff" stop-opacity=".97"/><stop offset="1" stop-color="#fff"/></linearGradient><linearGradient id="g" x1="132.125" x2="132.125" y1=".927" y2="20.316" gradientUnits="userSpaceOnUse"><stop stop-color="#fff" stop-opacity="0"/><stop offset=".3" stop-color="#fff" stop-opacity=".13"/><stop offset=".59" stop-color="#fff" stop-opacity=".462"/><stop offset=".8" stop-color="#fff" stop-opacity=".792"/><stop offset=".9" stop-color="#fff" stop-opacity=".97"/><stop offset="1" stop-color="#fff"/></linearGradient><linearGradient id="h" x1="19.694" x2=".253" y1="16.697" y2="16.697" gradientUnits="userSpaceOnUse"><stop stop-color="#fff"/><stop offset=".08" stop-color="#fff" stop-opacity=".922"/><stop offset=".2" stop-color="#fff" stop-opacity=".723"/><stop offset=".35" stop-color="#fff" stop-opacity=".462"/><stop offset=".54" stop-color="#fff" stop-opacity=".194"/><stop offset=".75" stop-color="#fff" stop-opacity=".02"/><stop offset=".84" stop-color="#fff" stop-opacity="0"/></linearGradient><linearGradient id="i" x1="49.551" x2="44.263" y1="46.812" y2="46.812" gradientUnits="userSpaceOnUse"><stop stop-color="#fff"/><stop offset=".08" stop-color="#fff" stop-opacity=".922"/><stop offset=".2" stop-color="#fff" stop-opacity=".723"/><stop offset=".35" stop-color="#fff" stop-opacity=".462"/><stop offset=".54" stop-color="#fff" stop-opacity=".194"/><stop offset=".75" stop-color="#fff" stop-opacity=".02"/><stop offset=".84" stop-color="#fff" stop-opacity="0"/></linearGradient><linearGradient id="j" x1="23.555" x2="39.243" y1="33.501" y2="33.501" gradientUnits="userSpaceOnUse"><stop stop-color="#fff" stop-opacity="0"/><stop offset=".3" stop-color="#fff" stop-opacity=".13"/><stop offset=".59" stop-color="#fff" stop-opacity=".462"/><stop offset=".8" stop-color="#fff" stop-opacity=".792"/><stop offset=".9" stop-color="#fff" stop-opacity=".97"/><stop offset="1" stop-color="#fff"/></linearGradient><linearGradient id="k" x1="5.978" x2="5.978" y1="50.66" y2="30.267" gradientUnits="userSpaceOnUse"><stop stop-color="#fff"/><stop offset=".08" stop-color="#fff" stop-opacity=".922"/><stop offset=".2" stop-color="#fff" stop-opacity=".723"/><stop offset=".35" stop-color="#fff" stop-opacity=".462"/><stop offset=".54" stop-color="#fff" stop-opacity=".194"/><stop offset=".75" stop-color="#fff" stop-opacity=".02"/><stop offset=".84" stop-color="#fff" stop-opacity="0"/></linearGradient><linearGradient id="l" x1="59.244" x2="59.244" y1="50.66" y2="30.267" gradientUnits="userSpaceOnUse"><stop stop-color="#fff"/><stop offset=".08" stop-color="#fff" stop-opacity=".922"/><stop offset=".2" stop-color="#fff" stop-opacity=".723"/><stop offset=".35" stop-color="#fff" stop-opacity=".462"/><stop offset=".54" stop-color="#fff" stop-opacity=".194"/><stop offset=".75" stop-color="#fff" stop-opacity=".02"/><stop offset=".84" stop-color="#fff" stop-opacity="0"/></linearGradient><linearGradient id="m" x1="114.738" x2="121.13" y1="40.938" y2="49.488" gradientUnits="userSpaceOnUse"><stop stop-color="#fff"/><stop offset="1" stop-color="#fff" stop-opacity="0"/></linearGradient></defs></svg>