<svg xmlns="http://www.w3.org/2000/svg" viewBox="0 0 413.22 365.88"><defs><style>.cls-1{fill:#206994;}.cls-2{fill:#367fac;}.cls-3{fill:#85b3cb;}.cls-4{fill:#488db4;}.cls-5{fill:#1b5f86;}.cls-6{fill:#2272a5;}.cls-7{fill:#ca4b06;}.cls-8{fill:#f8782f;}.cls-9{fill:#f6681c;}.cls-10{fill:#f8a77a;}.cls-11{fill:#fa965a;}.cls-12{fill:#f98748;}.cls-13{fill:#e15309;}</style></defs><g id="Layer_2" data-name="Layer 2"><g id="Layer_1-2" data-name="Layer 1"><polygon class="cls-1" points="137.78 0 0.04 121.92 137.78 121.92 137.78 0"/><polygon class="cls-2" points="137.74 122.04 0 243.96 137.74 243.96 137.74 122.04"/><polygon class="cls-3" points="137.74 243.96 0 365.88 137.74 365.88 137.74 243.96"/><polygon class="cls-3" points="137.74 365.88 275.48 243.96 137.74 243.96 137.74 365.88"/><polygon class="cls-4" points="137.74 243.96 275.48 122.04 137.74 122.04 137.74 243.96"/><polygon class="cls-5" points="137.74 122.04 275.48 0.12 137.74 0.12 137.74 122.04"/><polygon class="cls-6" points="0 243.96 137.74 122.04 0 122.04 0 243.96"/><polygon class="cls-7" points="275.48 122.04 413.22 0.12 275.48 0.12 275.48 122.04"/><polygon class="cls-8" points="275.48 243.96 413.22 122.04 275.48 122.04 275.48 243.96"/><polygon class="cls-9" points="275.48 122.04 137.74 243.96 275.48 243.96 275.48 122.04"/><polygon class="cls-10" points="275.48 243.96 137.74 365.88 275.48 365.88 275.48 243.96"/><polygon class="cls-11" points="275.48 365.88 413.22 243.96 275.48 243.96 275.48 365.88"/><polygon class="cls-12" points="413.22 122.04 275.48 243.96 413.22 243.96 413.22 122.04"/><polygon class="cls-13" points="275.48 0.12 137.74 122.04 275.48 122.04 275.48 0.12"/></g></g></svg>